<?xml version="1.0" encoding="UTF-8" standalone="no"?>
<svg xmlns="http://www.w3.org/2000/svg" width="512" height="512" viewBox="0 0 512 512">
  <rect width="100%" height="100%" fill="rgb(152,134,229)"/>
  <path d="M 422.00 128.00 L 399.00 109.00 L 381.00 101.00 L 357.00 96.00 L 325.00 96.00 L 289.00 103.00 L 261.00 113.00 L 226.00 131.00 L 190.00 156.00 L 140.00 203.00 L 121.00 226.00 L 99.00 258.00 L 80.00 294.00 L 70.00 321.00 L 64.00 350.00 L 64.00 376.00 L 72.00 399.00 L 81.00 408.00 L 95.00 414.00 L 116.00 415.00 L 141.00 409.00 L 174.00 389.00 L 211.00 348.00 L 214.00 351.00 L 213.00 369.00 L 217.00 380.00 L 224.00 388.00 L 238.00 394.00 L 260.00 393.00 L 280.00 385.00 L 301.00 370.00 L 322.00 346.00 L 328.00 364.00 L 340.00 372.00 L 361.00 371.00 L 382.00 360.00 L 403.00 339.00 L 419.00 315.00 L 433.00 285.00 L 445.00 241.00 L 447.00 225.00 L 445.00 178.00 L 437.00 152.00 Z" fill="rgb(255,255,255)"/>
  <ellipse cx="315.51" cy="201.59" rx="19.75" ry="24.93" transform="rotate(0.04 315.51 201.59)" fill="rgb(152,134,229)"/>
  <ellipse cx="379.09" cy="201.58" rx="19.68" ry="25.07" transform="rotate(179.98 379.09 201.58)" fill="rgb(152,134,229)"/>
</svg>


